<?xml version="1.0" standalone="no"?>
<!DOCTYPE svg PUBLIC "-//W3C//DTD SVG 20010904//EN"
 "http://www.w3.org/TR/2001/REC-SVG-20010904/DTD/svg10.dtd">
<svg version="1.0" xmlns="http://www.w3.org/2000/svg"
 width="480.000000pt" height="480.000000pt" viewBox="0 0 480.000000 480.000000"
 preserveAspectRatio="xMidYMid meet">
<metadata>
Created by potrace 1.14, written by Peter Selinger 2001-2017
</metadata>
<g transform="translate(0.000000,480.000000) scale(0.100000,-0.100000)"
fill="#000000" stroke="none">
<path d="M1080 4784 c-224 -60 -407 -244 -465 -469 -20 -77 -20 -243 0 -320
35 -134 123 -271 223 -349 65 -49 159 -99 218 -115 l41 -11 7 -93 c17 -221 86
-433 204 -622 l31 -49 -50 -27 c-128 -71 -276 -186 -379 -296 l-69 -73 -73 20
c-49 14 -103 20 -168 20 -180 0 -299 -49 -425 -175 -125 -125 -175 -246 -175
-425 0 -179 50 -300 175 -425 112 -112 248 -175 380 -175 l50 0 1 -208 c1
-226 8 -268 73 -437 98 -255 293 -454 513 -526 63 -21 92 -24 213 -24 120 1
149 4 205 23 148 52 295 169 397 314 52 75 55 77 86 70 42 -9 572 -9 614 0 31
7 34 5 86 -70 125 -177 296 -297 474 -332 38 -8 106 -11 170 -8 189 8 309 65
464 218 137 135 214 275 272 494 19 70 22 109 22 283 l0 203 50 0 c132 0 268
63 380 175 126 126 175 245 175 425 0 180 -49 299 -175 425 -87 88 -163 132
-275 161 -81 21 -261 15 -335 -10 l-51 -18 -109 109 c-103 101 -221 191 -340
258 -27 16 -51 29 -53 30 -1 1 20 38 47 83 113 188 159 344 187 624 l5 58 42
11 c23 6 78 29 121 52 155 80 277 237 321 412 19 77 19 243 0 320 -57 226
-243 411 -470 470 -69 18 -231 20 -307 4 -76 -16 -204 -78 -269 -132 l-56 -46
-95 49 c-192 99 -363 140 -588 140 -222 0 -404 -43 -591 -138 l-94 -49 -55 45
c-64 52 -169 105 -255 127 -75 19 -251 19 -325 -1z m1530 -1222 c151 -50 274
-152 337 -280 34 -67 38 -86 42 -164 4 -110 -21 -189 -88 -278 -113 -149 -290
-230 -501 -230 -267 0 -494 142 -569 355 -34 95 -28 215 15 305 71 147 187
243 364 297 65 20 92 22 205 20 99 -3 145 -9 195 -25z m-1093 -2094 c110 -41
221 -177 258 -319 19 -70 19 -229 0 -299 -60 -225 -246 -374 -425 -340 -152
29 -277 160 -325 340 -19 70 -19 229 0 299 37 139 147 278 255 319 74 28 162
28 237 0z m2000 0 c110 -41 221 -177 258 -319 19 -70 19 -229 0 -299 -60 -225
-246 -374 -425 -340 -152 29 -277 160 -325 340 -19 70 -19 229 0 299 37 139
147 278 255 319 74 28 162 28 237 0z"/>
<path d="M2293 3374 c-62 -37 -93 -95 -93 -174 0 -123 77 -200 200 -200 80 0
138 31 175 94 20 33 25 56 25 106 0 123 -77 200 -201 200 -51 0 -73 -5 -106
-26z"/>
</g>
</svg>
